<svg width="62" height="18" viewBox="0 0 62 18" fill="none" xmlns="http://www.w3.org/2000/svg">
<path d="M8.78389 17.424C6.23989 17.424 4.13589 16.584 2.47189 14.904C0.823891 13.224 -0.000109315 11.16 -0.000109315 8.712C-0.000109315 6.264 0.823891 4.2 2.47189 2.52C4.13589 0.839998 6.23989 -1.90735e-06 8.78389 -1.90735e-06C10.3199 -1.90735e-06 11.7279 0.367998 13.0079 1.104C14.3039 1.84 15.3119 2.832 16.0319 4.08L14.0879 5.208C13.6079 4.28 12.8879 3.544 11.9279 3C10.9839 2.44 9.93589 2.16 8.78389 2.16C6.84789 2.16 5.26389 2.784 4.03189 4.032C2.81589 5.28 2.20789 6.84 2.20789 8.712C2.20789 10.568 2.81589 12.12 4.03189 13.368C5.26389 14.616 6.84789 15.24 8.78389 15.24C9.93589 15.24 10.9839 14.968 11.9279 14.424C12.8879 13.864 13.6079 13.128 14.0879 12.216L16.0319 13.32C15.3279 14.568 14.3279 15.568 13.0319 16.32C11.7359 17.056 10.3199 17.424 8.78389 17.424Z" fill="#38BFF2"/>
<path d="M28.5421 15.6C27.3101 16.816 25.8141 17.424 24.0541 17.424C22.2941 17.424 20.7981 16.816 19.5661 15.6C18.3501 14.384 17.7421 12.888 17.7421 11.112C17.7421 9.336 18.3501 7.84 19.5661 6.624C20.7981 5.408 22.2941 4.8 24.0541 4.8C25.8141 4.8 27.3101 5.408 28.5421 6.624C29.7741 7.84 30.3901 9.336 30.3901 11.112C30.3901 12.888 29.7741 14.384 28.5421 15.6ZM24.0541 15.384C25.2541 15.384 26.2621 14.976 27.0781 14.16C27.8941 13.344 28.3021 12.328 28.3021 11.112C28.3021 9.896 27.8941 8.88 27.0781 8.064C26.2621 7.248 25.2541 6.84 24.0541 6.84C22.8701 6.84 21.8701 7.248 21.0541 8.064C20.2381 8.88 19.8301 9.896 19.8301 11.112C19.8301 12.328 20.2381 13.344 21.0541 14.16C21.8701 14.976 22.8701 15.384 24.0541 15.384ZM51.5421 12.072C51.7501 13.144 52.2381 13.976 53.0061 14.568C53.7901 15.16 54.7501 15.456 55.8861 15.456C57.4701 15.456 58.6221 14.872 59.3421 13.704L61.1181 14.712C59.9501 16.52 58.1901 17.424 55.8381 17.424C53.9341 17.424 52.3821 16.832 51.1821 15.648C49.9981 14.448 49.4061 12.936 49.4061 11.112C49.4061 9.304 49.9901 7.8 51.1581 6.6C52.3261 5.4 53.8381 4.8 55.6941 4.8C57.4541 4.8 58.8861 5.424 59.9901 6.672C61.1101 7.904 61.6701 9.392 61.6701 11.136C61.6701 11.44 61.6461 11.752 61.5981 12.072H51.5421ZM55.6941 6.768C54.5741 6.768 53.6461 7.088 52.9101 7.728C52.1741 8.352 51.7181 9.192 51.5421 10.248H59.5581C59.3821 9.112 58.9341 8.248 58.2141 7.656C57.4941 7.064 56.6541 6.768 55.6941 6.768Z" fill="black"/>
<path d="M39.6196 0.311998C41.9076 0.311998 43.8036 1.128 45.3076 2.76C46.8276 4.376 47.5876 6.36 47.5876 8.712C47.5876 11.064 46.8276 13.056 45.3076 14.688C43.8036 16.304 41.9076 17.112 39.6196 17.112H33.0676V0.311998H39.6196ZM39.6196 15C41.3316 15 42.7316 14.4 43.8196 13.2C44.9076 12 45.4516 10.504 45.4516 8.712C45.4516 6.92 44.9076 5.424 43.8196 4.224C42.7316 3.024 41.3316 2.424 39.6196 2.424H35.2996V15H39.6196Z" fill="#F15525"/>
</svg>
